<svg xmlns="http://www.w3.org/2000/svg" xmlns:xlink="http://www.w3.org/1999/xlink" width="1249.648" height="254.07" viewBox="0 0 1249.648 304.07">
  <defs>
    <filter id="Rectangle" x="0" y="0" width="1249.648" height="304.07" filterUnits="userSpaceOnUse">
      <feOffset dy="3" input="SourceAlpha"/>
      <feGaussianBlur stdDeviation="13" result="blur"/>
      <feFlood flood-opacity="0.09"/>
      <feComposite operator="in" in2="blur"/>
      <feComposite in="SourceGraphic"/>
    </filter>
    <filter id="variable_1" x="113.5" y="42.577" width="131" height="104" filterUnits="userSpaceOnUse">
      <feOffset dy="3" input="SourceAlpha"/>
      <feGaussianBlur stdDeviation="13" result="blur-2"/>
      <feFlood flood-opacity="0.11"/>
      <feComposite operator="in" in2="blur-2"/>
      <feComposite in="SourceGraphic"/>
    </filter>
    <filter id="variable_1-2" x="954.75" y="42.577" width="155" height="104" filterUnits="userSpaceOnUse">
      <feOffset dy="3" input="SourceAlpha"/>
      <feGaussianBlur stdDeviation="13" result="blur-3"/>
      <feFlood flood-opacity="0.11"/>
      <feComposite operator="in" in2="blur-3"/>
      <feComposite in="SourceGraphic"/>
    </filter>
    <filter id="variable_2" x="376.216" y="42.577" width="156" height="104" filterUnits="userSpaceOnUse">
      <feOffset dy="3" input="SourceAlpha"/>
      <feGaussianBlur stdDeviation="13" result="blur-4"/>
      <feFlood flood-opacity="0.11"/>
      <feComposite operator="in" in2="blur-4"/>
      <feComposite in="SourceGraphic"/>
    </filter>
    <filter id="variable_3" x="674.98" y="42.577" width="146" height="104" filterUnits="userSpaceOnUse">
      <feOffset dy="3" input="SourceAlpha"/>
      <feGaussianBlur stdDeviation="13" result="blur-5"/>
      <feFlood flood-opacity="0.11"/>
      <feComposite operator="in" in2="blur-5"/>
      <feComposite in="SourceGraphic"/>
    </filter>
  </defs>
  <g id="Countries_overview" data-name="Countries overview" transform="translate(39 32)">
    <g transform="matrix(1, 0, 0, 1, -39, -32)" filter="url(#Rectangle)">
      <rect id="Rectangle-2" data-name="Rectangle" width="1171.648" height="226.07" transform="translate(39 36)" fill="#fff"/>
    </g>
    <g id="Group_19" data-name="Group 19" transform="translate(56 46.577)">
      <path id="Path_3" data-name="Path 3" d="M0,18.915,28.155,7.825,55.774,13.37,79.852,0,103.1,13.37l32.173,5.545L161.32,13.37" transform="translate(0 110.963)" fill="none" stroke="#00e38c" stroke-miterlimit="10" stroke-width="1.5"/>
      <text id="_475" data-name="475" transform="translate(80.5 76.254)" fill="#002257" font-size="35" font-family="Lato-Bold, Lato" font-weight="700" letter-spacing="0.007em"><tspan x="-30.691" y="0">475</tspan></text>
      <g transform="matrix(1, 0, 0, 1, -95, -78.58)" filter="url(#variable_1)">
        <text id="variable_1-3" data-name="variable 1" transform="translate(152.5 99.58)" fill="#495172" font-size="19" font-family="SegoeUI, Segoe UI"><tspan x="0" y="0">Assets</tspan></text>
      </g>
      <path id="Polygon_3" data-name="Polygon 3" d="M8.5,0,17,9H0Z" transform="translate(121.5 58.423)" fill="#00e38c"/>
    </g>
    <g id="Group_16" data-name="Group 16" transform="translate(905.751 46.577)">
      <path id="Path_3-2" data-name="Path 3" d="M0,18.915,28.155,7.825,55.774,13.37,79.852,0,103.1,13.37l32.173,5.545L161.32,13.37" transform="translate(0 110.963)" fill="none" stroke="#00e38c" stroke-miterlimit="10" stroke-width="1.5"/>
      <text id="_475-2" data-name="475" transform="translate(65.373 76.254)" fill="#002257" font-size="35" font-family="Lato-Bold, Lato" font-weight="700" letter-spacing="0.007em"><tspan x="-30.691" y="0">475</tspan></text>
      <g transform="matrix(1, 0, 0, 1, -944.75, -78.58)" filter="url(#variable_1-2)">
        <text id="variable_1-4" data-name="variable 1" transform="translate(993.75 99.58)" fill="#495172" font-size="19" font-family="SegoeUI, Segoe UI"><tspan x="0" y="0">Expenses</tspan></text>
      </g>
      <path id="Polygon_8" data-name="Polygon 8" d="M8.5,0,17,9H0Z" transform="translate(104.127 58.423)" fill="#00e38c"/>
    </g>
    <g id="Group_18" data-name="Group 18" transform="translate(338.216 46.577)">
      <text id="_220" data-name="220" transform="translate(64.141 77.423)" fill="#002257" font-size="36" font-family="Lato-Bold, Lato" font-weight="700" letter-spacing="0.007em"><tspan x="-31.567" y="0">431</tspan></text>
      <g transform="matrix(1, 0, 0, 1, -377.22, -78.58)" filter="url(#variable_2)">
        <text id="variable_2-2" data-name="variable 2" transform="translate(415.22 99.58)" fill="#495172" font-size="19" font-family="SegoeUI, Segoe UI"><tspan x="0" y="0">Liabilities</tspan></text>
      </g>
      <path id="Path_3-3" data-name="Path 3" d="M0,.033l28.155,11.09L55.774-1.988l24.078,13.37,23.246-5.8L135.271.033l26.049-12.8" transform="translate(0 122.28)" fill="none" stroke="#00e38c" stroke-miterlimit="10" stroke-width="1.5"/>
      <path id="Polygon_4" data-name="Polygon 4" d="M8.5,0,17,9H0Z" transform="translate(104.141 58.423)" fill="#00e38c"/>
    </g>
    <g id="Group_17" data-name="Group 17" transform="translate(621.983 46.577)">
      <text id="_471" data-name="471" transform="translate(77.609 77.423)" fill="#002257" font-size="36" font-family="Lato-Bold, Lato" font-weight="700" letter-spacing="0.007em"><tspan x="-31.567" y="0">174</tspan></text>
      <g transform="matrix(1, 0, 0, 1, -660.98, -78.58)" filter="url(#variable_3)">
        <text id="variable_3-2" data-name="variable 3" transform="translate(713.98 99.58)" fill="#495172" font-size="19" font-family="SegoeUI, Segoe UI"><tspan x="0" y="0">revenue</tspan></text>
      </g>
      <path id="Path_3-4" data-name="Path 3" d="M0,11.349,28.155.259,55.774,13.37,79.852,0,103.1,5.8l32.173,5.545,26.049,12.8" transform="translate(161.32 133.662) rotate(180)" fill="none" stroke="#ff4b75" stroke-miterlimit="10" stroke-width="1.5"/>
      <path id="Polygon_5" data-name="Polygon 5" d="M8.5,0,17,9H0Z" transform="translate(134.609 67.423) rotate(180)" fill="#ff4b75"/>
    </g>
  </g>
</svg>
